<?xml version="1.0" encoding="utf-8"?>
<!-- Generator: Adobe Illustrator 25.4.0, SVG Export Plug-In . SVG Version: 6.00 Build 0)  -->
<svg version="1.1" id="Layer_1" xmlns="http://www.w3.org/2000/svg" xmlns:xlink="http://www.w3.org/1999/xlink" x="0px" y="0px"
	 viewBox="0 0 160 22.4" style="enable-background:new 0 0 160 22.4;" xml:space="preserve">
<style type="text/css">
	.st0{fill-rule:evenodd;clip-rule:evenodd;fill:#005A9B;}
	.st1{fill:#FFFFFF;}
	.st2{fill-rule:evenodd;clip-rule:evenodd;fill:#FFFFFF;}
	.st3{fill-rule:evenodd;clip-rule:evenodd;fill:#2D2D2D;}
	.st4{fill-rule:evenodd;clip-rule:evenodd;fill:#F47216;}
	.st5{fill:#FF5F00;}
	.st6{fill:#EB001B;}
	.st7{fill:#F79E1B;}
	.st8{fill-rule:evenodd;clip-rule:evenodd;fill:#FAA929;}
</style>
<g>
	<g>
		<path class="st0" d="M86.5,0c-1.4,0-2.4,1.1-2.4,2.4v17.5c0,1.4,1.1,2.4,2.4,2.4h29.9c1.4,0,2.4-1.1,2.4-2.4V2.4
			c0-1.4-1.1-2.4-2.4-2.4C116.4,0,86.5,0,86.5,0z"/>
		<path class="st1" d="M91.9,8l-2.8,6.2h3.3l0.4-1h1l0.4,1h3.7v-0.7l0.4,0.7h1.9l0.4-0.8v0.8h7.6l1-1l0.9,1h3.9l-2.8-3.1l2.8-3.1
			H110l-1,1l-0.9-1h-8.3l-0.7,1.6l-0.7-1.6h-3.3v0.7l-0.4-0.7C94.7,8,91.9,8,91.9,8z M92.6,8.9h1.7l1.9,4.2V8.9h1.8l1.5,3l1.3-3h1.8
			v4.5h-1.1V10l-1.6,3.4h-1L97.2,10v3.4h-2.3l-0.4-1h-2.3l-0.4,1h-1.3C90.6,13.4,92.6,8.9,92.6,8.9z M103.3,8.9h4.4l1.4,1.5l1.4-1.5
			h1.4l-2.1,2.2l2.1,2.2h-1.4l-1.4-1.5l-1.4,1.5h-4.3L103.3,8.9L103.3,8.9z M93.4,9.7l-0.7,1.8h1.5L93.4,9.7z M104.4,9.9v0.8h2.3v1
			h-2.3v0.9h2.6l1.3-1.3l-1.3-1.3L104.4,9.9L104.4,9.9z"/>
	</g>
	<g>
		<path class="st2" d="M127.7,0c-1.4,0-2.4,1.1-2.4,2.4v17.5c0,1.4,1.1,2.4,2.4,2.4h29.9c1.4,0,2.4-1.1,2.4-2.4V2.4
			c0-1.4-1.1-2.4-2.4-2.4C157.6,0,127.7,0,127.7,0z"/>
		<path class="st3" d="M139.9,7.2c0.4,0,0.7,0.1,1.2,0.3v1c-0.4-0.4-0.7-0.5-1.2-0.5c-0.9,0-1.5,0.7-1.5,1.5c0,0.9,0.7,1.5,1.6,1.5
			c0.4,0,0.7-0.1,1.1-0.5v1c-0.4,0.2-0.7,0.3-1.2,0.3c-1.4,0-2.4-1-2.4-2.3C137.3,8.2,138.4,7.2,139.9,7.2L139.9,7.2z M135.5,7.2
			c0.5,0,1,0.1,1.4,0.5l-0.5,0.6c-0.2-0.3-0.4-0.4-0.7-0.4c-0.4,0-0.7,0.2-0.7,0.5c0,0.2,0.1,0.4,0.7,0.6c1.1,0.4,1.4,0.7,1.4,1.4
			c0,0.9-0.7,1.5-1.7,1.5c-0.7,0-1.3-0.3-1.7-0.9l0.6-0.5c0.2,0.4,0.6,0.6,1,0.6c0.4,0,0.7-0.3,0.7-0.7c0-0.2-0.1-0.4-0.3-0.4
			c-0.1-0.1-0.3-0.1-0.7-0.3c-0.9-0.3-1.2-0.6-1.2-1.3C134,7.7,134.7,7.2,135.5,7.2z M145.9,7.2h1l1.3,2.9l1.3-2.9h1l-2.1,4.6h-0.5
			L145.9,7.2L145.9,7.2z M128.3,7.3h1.4c1.5,0,2.5,1,2.5,2.2c0,0.7-0.3,1.3-0.9,1.8c-0.4,0.4-1,0.5-1.7,0.5h-1.4L128.3,7.3
			L128.3,7.3z M132.5,7.3h1v4.5h-1V7.3z M150.9,7.3h2.5V8h-1.7v1h1.7v0.7h-1.7V11h1.7v0.7h-2.5V7.3L150.9,7.3z M154,7.3h1.4
			c1.1,0,1.7,0.5,1.7,1.3c0,0.7-0.4,1.2-1.1,1.3l1.5,1.9h-1.1l-1.3-1.8H155v1.8h-1L154,7.3L154,7.3z M155,8v1.4h0.3
			c0.6,0,0.9-0.2,0.9-0.7c0-0.4-0.3-0.7-0.9-0.7H155L155,8z M129.1,8v2.9h0.2c0.6,0,1-0.1,1.3-0.4s0.5-0.7,0.5-1.2s-0.2-0.9-0.5-1.1
			c-0.3-0.3-0.7-0.4-1.3-0.4L129.1,8L129.1,8z"/>
		<path class="st4" d="M143.7,7.2c1.4,0,2.5,1.1,2.5,2.3l0,0c0,1.3-1.2,2.3-2.5,2.3c-1.4,0-2.5-1.1-2.5-2.3l0,0
			C141.2,8.2,142.3,7.2,143.7,7.2L143.7,7.2z M160,12.8c-1.2,0.8-9.9,6.6-24.9,9.5h22.5c1.4,0,2.4-1.1,2.4-2.4V12.8L160,12.8z"/>
	</g>
	<g>
		<path class="st2" d="M2.4,0C1.1,0,0,1.1,0,2.4v17.5c0,1.4,1.1,2.4,2.4,2.4h29.9c1.4,0,2.4-1.1,2.4-2.4V2.4c0-1.4-1.1-2.4-2.4-2.4
			C32.3,0,2.4,0,2.4,0z"/>
		<g>
			<rect x="14.3" y="5.7" class="st5" width="6.2" height="11"/>
			<path class="st6" d="M14.7,11.1c0-2.1,1-4.2,2.6-5.5c-3-2.4-7.4-1.9-9.8,1.2s-1.9,7.4,1.2,9.8c2.5,2.1,6.2,2.1,8.6,0
				C15.6,15.3,14.7,13.3,14.7,11.1z"/>
			<path class="st7" d="M28.6,11.1c0,3.9-3.1,6.9-6.9,6.9c-1.6,0-3.1-0.5-4.3-1.5c3-2.3,3.5-6.7,1.2-9.8c-0.4-0.4-0.7-0.9-1.2-1.2
				c3-2.4,7.4-1.9,9.8,1.2C28.1,8,28.6,9.6,28.6,11.1z"/>
		</g>
	</g>
	<g>
		<g>
			<path class="st2" d="M45.4,0C44.1,0,43,1.1,43,2.4v17.5c0,1.4,1.1,2.4,2.4,2.4h29.9c1.4,0,2.4-1.1,2.4-2.4V2.4
				c0-1.4-1.1-2.4-2.4-2.4C75.3,0,45.4,0,45.4,0z"/>
			<path class="st8" d="M43,19.8c0,1.3,1,2.3,2.2,2.4h30.4c1.3-0.1,2.2-1.2,2.2-2.4v-2.2H43.1L43,19.8L43,19.8z"/>
			<path class="st0" d="M75.4,0H45.5c-1.4,0-2.4,1.1-2.4,2.4v2.2h34.8V2.4C77.9,1.1,76.7,0,75.4,0z"/>
		</g>
		<g>
			<polygon class="st0" points="56,14.2 57.8,8 59.5,8 57.6,14.2 			"/>
			<path class="st0" d="M55.3,8l-1.5,2.5c-0.4,0.7-0.6,1-0.7,1.5l0,0c0-0.6-0.1-1.3-0.1-1.6L52.9,8h-2.8v0.1c0.7,0,1.2,0.4,1.3,1.1
				l0.6,4.9h1.8l3.4-6.2L55.3,8L55.3,8z"/>
			<path class="st0" d="M68.2,14.2l-0.1-1H66l-0.4,1h-1.8L67.2,8h2.2l0.6,6.2H68.2L68.2,14.2z M68,10.5c0-0.4,0-1.1,0-1.5l0,0
				c-0.1,0.3-0.5,1.3-0.7,1.7l-0.7,1.4h1.5L68,10.5L68,10.5z"/>
			<path class="st0" d="M61.2,14.4c-1.2,0-2-0.4-2.5-0.7l0.8-1.3c0.5,0.3,0.9,0.6,1.8,0.6c0.3,0,0.6-0.1,0.7-0.4
				c0.2-0.4-0.1-0.7-0.7-1L61,11.4c-1-0.7-1.4-1.3-1-2.3c0.3-0.7,1.1-1.3,2.3-1.3c0.9,0,1.7,0.4,2.1,0.7l-1,1.2
				c-0.4-0.4-0.9-0.6-1.3-0.6c-0.4,0-0.7,0.1-0.7,0.3c-0.1,0.4,0.1,0.6,0.6,0.9l0.4,0.2c1.2,0.7,1.5,1.5,1.2,2.2
				C63.3,14.1,62.3,14.4,61.2,14.4L61.2,14.4z"/>
			<path class="st0" d="M70.3,8.9L70.3,8.9l-0.1-0.4h0.1c0.1,0,0.1,0.1,0.1,0.1c0,0.1-0.1,0.1-0.1,0.1V8.9L70.3,8.9l-0.1-0.2h-0.1
				L70.3,8.9L70.3,8.9z M70.4,8.6C70.5,8.6,70.5,8.6,70.4,8.6C70.5,8.5,70.4,8.5,70.4,8.6L70.4,8.6L70.4,8.6L70.4,8.6L70.4,8.6z
				 M70.4,9.1C70.2,9.1,70,9,70,8.7c0-0.2,0.2-0.4,0.4-0.4s0.4,0.1,0.4,0.4C70.8,8.9,70.6,9.1,70.4,9.1L70.4,9.1z M70.4,8.3
				c-0.1,0-0.3,0.1-0.3,0.4c0,0.2,0.1,0.4,0.3,0.4c0.1,0,0.3-0.1,0.3-0.4C70.8,8.5,70.6,8.3,70.4,8.3L70.4,8.3z"/>
		</g>
	</g>
</g>
</svg>
