<?xml version="1.0" encoding="utf-8"?>
<!-- Generator: Adobe Illustrator 25.4.0, SVG Export Plug-In . SVG Version: 6.00 Build 0)  -->
<svg version="1.1" id="Layer_1" xmlns="http://www.w3.org/2000/svg" xmlns:xlink="http://www.w3.org/1999/xlink" x="0px" y="0px"
	 viewBox="0 0 329.2 85" style="enable-background:new 0 0 329.2 85;" xml:space="preserve">
<style type="text/css">
	.st0{fill:#042745;}
	.st1{fill:#FFFFFF;}
	.st2{fill:none;stroke:#042745;stroke-width:1.9744;stroke-miterlimit:10;}
</style>
<g>
	<g>
		<g>
			<g>
				<path class="st0" d="M81.1,85H3.9C1.7,85,0,83.2,0,81.1V3.9C0,1.7,1.8,0,3.9,0h77.3C83.3,0,85,1.8,85,3.9v77.3
					C85,83.2,83.3,85,81.1,85z M3.9,2.8c-0.6,0-1,0.5-1,1v77.3c0,0.6,0.5,1,1,1h77.3c0.6,0,1-0.5,1-1V3.9c0-0.6-0.5-1-1-1L3.9,2.8
					L3.9,2.8z"/>
				<path class="st0" d="M78.1,80H6.9c-1.1,0-2-0.9-2-2V6.9c0-1.1,0.9-2,2-2H78c1.1,0,2,0.9,2,2V78C80.1,79.1,79.2,80,78.1,80z"/>
			</g>
		</g>
		<g>
			<g>
				<path class="st1" d="M64,63.2l7.8-3.4V21.7c0-4-3.3-7.3-7.3-7.3h-7.3c-0.9,0-1.6,0.7-1.6,1.6v2.7c0,0.9,0.7,1.6,1.5,1.6
					c1.8,0.1,3.2,0.3,4.1,0.6c1.2,0.4,2,1.3,2.4,2.6c0.4,1.3,0.5,3.2,0.5,5.6L64,63.2z"/>
				<path class="st1" d="M35.9,14.4V20c1.8,0,3.3,0.2,4.2,0.5c1.3,0.4,2.2,1.1,2.7,2.3c0.6,1.2,0.8,3,0.8,5.3v17.2h8.1V28.6
					c0-2.5,0.1-4.2,0.5-5.4c0.3-1.2,1.1-2,2.2-2.4c1.1-0.4,2.8-0.6,5-0.6v-5.8H35.9z"/>
				<path class="st1" d="M59.4,69.9c-1.8,0-3.3-0.2-4.2-0.5c-1.3-0.4-2.2-1.1-2.7-2.3c-0.6-1.2-0.8-3-0.8-5.3V44.6h-8.1v16.7
					c0,2.5-0.1,4.2-0.5,5.4c-0.3,1.2-1.1,2-2.2,2.4c-1.1,0.4-2.8,0.6-5,0.6v5.8h23.5V69.9z"/>
			</g>
			<g>
				<path class="st1" d="M37.9,15.6l3.9-0.4l-7.5,5.1h-9.7c-2.4,0-4.1,0.2-5.4,0.7c-1.3,0.4-2.1,1.3-2.6,2.4c-0.5,1.2-0.7,2.9-0.7,5
					h-2.8v-19h2.8c-0.7,5.2,7.5,5,8.6,5h9.7L37.9,15.6z"/>
			</g>
			<path class="st1" d="M31.2,29c0-2.5,0.1-4.3,0.5-5.6c0.4-1.3,1.2-2.2,2.4-2.6c1-0.3,2.4-0.5,4.1-0.6c0.8,0,1.5-0.7,1.5-1.6V16
				c0-0.9-0.7-1.6-1.6-1.6h-7.3c-4,0-7.3,3.3-7.3,7.3v38.1l8.1,4.6L31.2,29z"/>
		</g>
	</g>
	<g>
		<g>
			<g>
				<line class="st2" x1="93.7" y1="65.1" x2="143.8" y2="65.1"/>
				<line class="st2" x1="243.9" y1="65.1" x2="293.1" y2="65.1"/>
			</g>
		</g>
	</g>
	<g>
		<circle class="st0" cx="314.7" cy="16.3" r="14.5"/>
		<g>
			<path class="st1" d="M309.3,23.9V8.6h6.9c0.7,0,1.4,0.2,2.1,0.5c0.6,0.3,1.2,0.7,1.6,1.2c0.4,0.5,0.8,1.1,1.1,1.7
				s0.4,1.3,0.4,1.9s-0.1,1.2-0.3,1.8c-0.2,0.6-0.5,1.1-0.9,1.6c-0.4,0.5-0.8,0.8-1.3,1.1l3.4,5.7h-3.9l-3-4.9H313V24L309.3,23.9
				L309.3,23.9z M312.9,15.9h3.3c0.3,0,0.5-0.1,0.8-0.3c0.3-0.2,0.4-0.4,0.6-0.7c0.1-0.3,0.2-0.7,0.2-1.1s-0.1-0.8-0.3-1.1
				c-0.2-0.3-0.4-0.6-0.6-0.7c-0.3-0.2-0.5-0.3-0.8-0.3h-3.2V15.9z"/>
		</g>
	</g>
	<g>
		<path class="st0" d="M103.8,22.5c0.7,0,1.4,0,2.1,0c0.7,0,1.5,0,2.3,0c0.8,0,1.7,0,2.6,0c0.9,0,1.8,0,2.8,0c0,0.6-0.1,1.1-0.1,1.5
			c0,0.5-0.1,0.9-0.1,1.3c0,0.4,0,0.9,0,1.3c0,0.4,0,0.9,0,1.5l-1,0c-0.1-0.8-0.3-1.5-0.5-2.1c-0.2-0.6-0.4-1-0.7-1.4
			c-0.3-0.4-0.7-0.6-1.2-0.8s-1.2-0.2-2.1-0.2h-2.6v18.1c0,0.4,0,0.7,0.1,0.9c0.1,0.2,0.2,0.5,0.4,0.6c0.2,0.2,0.5,0.3,1,0.4
			c0.4,0.1,1,0.1,1.8,0.2l0,0.9c-0.3,0-0.7,0-1.1,0c-0.4,0-0.8,0-1.3,0c-0.4,0-0.9,0-1.4,0c-0.5,0-0.9,0-1.3,0c-0.5,0-0.9,0-1.3,0
			c-0.4,0-0.7,0-1.1,0c-0.4,0-0.7,0-1.1,0c-0.4,0-0.7,0-1,0L99,43.8c0.7,0,1.3-0.1,1.7-0.2c0.4-0.1,0.8-0.2,1-0.5
			c0.2-0.2,0.4-0.5,0.4-0.9c0.1-0.4,0.1-0.8,0.1-1.4V23.6h-2.5c-0.9,0-1.6,0.1-2.1,0.2c-0.5,0.2-1,0.4-1.3,0.8
			C96,25,95.7,25.5,95.6,26c-0.2,0.6-0.3,1.3-0.5,2.1l-1,0v-1.5c0-0.7,0-1.4,0-2c0-0.6-0.1-1.4-0.1-2.2c1,0,1.9,0,2.8,0
			c0.9,0,1.8,0,2.6,0c0.8,0,1.6,0,2.3,0C102.4,22.5,103.1,22.5,103.8,22.5z"/>
		<path class="st0" d="M121.2,41.6c0,0.4,0,0.7,0.1,0.9c0,0.3,0.2,0.5,0.4,0.6c0.2,0.2,0.5,0.3,0.9,0.4c0.4,0.1,1,0.1,1.7,0.2l0,0.9
			c-0.7,0-1.5,0-2.3,0c-0.8,0-1.7,0-2.6,0c-0.4,0-0.8,0-1.1,0c-0.4,0-0.7,0-1.1,0c-0.3,0-0.7,0-1,0c-0.3,0-0.6,0-0.8,0l0-0.8
			c0.6,0,1.1-0.1,1.4-0.2s0.6-0.3,0.8-0.5c0.2-0.2,0.3-0.5,0.4-0.9c0.1-0.4,0.1-0.8,0.1-1.4V25.4c0-0.4,0-0.7-0.1-0.9
			c-0.1-0.2-0.2-0.5-0.4-0.6c-0.2-0.2-0.5-0.3-0.9-0.4c-0.4-0.1-0.9-0.1-1.5-0.2l0-0.9c0.2,0,0.5,0,0.9,0c0.3,0,0.7,0,1.1,0
			s0.8,0,1.3,0c0.5,0,0.9,0,1.2,0c0.8,0,1.6,0,2.2-0.1c0.6-0.1,1.2-0.1,1.6-0.1c1,0,2,0.1,2.9,0.2c0.9,0.2,1.8,0.4,2.5,0.8
			c0.7,0.4,1.4,0.9,1.8,1.6c0.5,0.7,0.7,1.6,0.7,2.6c0,0.7-0.1,1.4-0.3,2c-0.2,0.6-0.5,1.2-0.9,1.7c-0.4,0.5-0.9,1-1.4,1.4
			s-1.2,0.7-1.8,1c0.5,0.9,1,1.8,1.5,2.7c0.5,0.9,0.9,1.7,1.3,2.4c0.4,0.7,0.8,1.3,1.1,1.9c0.3,0.5,0.6,1,0.8,1.3
			c0.3,0.4,0.5,0.7,0.8,0.9c0.2,0.2,0.5,0.4,0.7,0.5c0.3,0.1,0.6,0.2,0.9,0.3c0.3,0.1,0.8,0.1,1.3,0.2l0,0.9c-0.5,0-1.1,0-1.8,0
			c-0.7,0-1.5,0-2.3,0c-0.4,0-0.8,0-1,0c-0.3,0-0.5,0-0.7,0c-0.2-0.3-0.4-0.8-0.7-1.4c-0.3-0.6-0.7-1.3-1.2-2.2
			c-0.4-0.8-0.9-1.7-1.5-2.7c-0.5-1-1.1-2-1.7-3c-0.1-0.2-0.2-0.3-0.3-0.4c-0.1-0.1-0.2-0.2-0.3-0.3c-0.1-0.1-0.3-0.2-0.5-0.2
			c-0.2,0-0.4-0.1-0.6-0.1h-0.4c-0.1,0-0.3,0-0.5,0c-0.2,0-0.4,0-0.6,0V41.6z M121.2,33.2c0.1,0,0.2,0,0.4,0c0.1,0,0.2,0,0.4,0h0.4
			c1.6,0,2.9-0.4,3.9-1.2c1-0.8,1.5-2.2,1.5-4c0-1.5-0.5-2.7-1.4-3.4c-0.9-0.7-2.1-1.1-3.5-1.1c-0.3,0-0.5,0-0.8,0.1
			c-0.3,0.1-0.5,0.2-0.6,0.4c-0.1,0.2-0.2,0.4-0.2,0.6c0,0.2,0,0.5,0,0.8V33.2z"/>
		<path class="st0" d="M149.1,36.4h-7.3L140,41c-0.3,0.9-0.5,1.4-0.5,1.7c0,0.4,0.2,0.6,0.6,0.8c0.4,0.2,1.1,0.3,2,0.3l-0.1,0.9
			c-0.6,0-1.2,0-1.9,0c-0.7,0-1.4,0-2.1,0c-0.6,0-1.2,0-1.8,0c-0.6,0-1.2,0-1.8,0l0-0.8c0.6,0,1.1-0.1,1.5-0.2
			c0.4-0.1,0.7-0.3,1-0.5c0.3-0.3,0.6-0.6,0.8-1.1c0.3-0.5,0.6-1.1,0.9-1.9l6.6-15.7c0.2-0.5,0.3-0.9,0.5-1.2
			c0.1-0.3,0.3-0.7,0.4-1.1l1.6-0.2c0.2,0.7,0.4,1.4,0.5,2c0.2,0.6,0.4,1.2,0.5,1.7l5.2,15.1c0.2,0.7,0.4,1.2,0.6,1.6
			c0.2,0.4,0.4,0.7,0.6,0.9s0.6,0.3,0.9,0.4c0.4,0.1,0.9,0.1,1.5,0.2l-0.1,0.9c-0.6,0-1.4,0-2.1,0c-0.8,0-1.6,0-2.5,0
			c-0.9,0-1.6,0-2.3,0c-0.7,0-1.3,0-2,0l-0.1-0.8c0.9-0.1,1.5-0.2,1.8-0.3c0.4-0.1,0.6-0.4,0.6-0.8c0-0.2,0-0.4-0.1-0.6
			c-0.1-0.2-0.1-0.5-0.2-0.8L149.1,36.4z M142.3,35.1h6.4l-2.9-8.7L142.3,35.1z"/>
		<path class="st0" d="M158.4,22.4c0.6,0,1.2,0,2,0c0.8,0,1.6,0,2.5,0c0.8,0,1.6,0,2.5-0.1c0.9-0.1,1.7-0.1,2.5-0.1
			c1.8,0,3.4,0.2,5,0.5c1.5,0.4,2.9,0.9,4.1,1.8c1.2,0.8,2.1,1.9,2.9,3.2c0.7,1.3,1.1,2.9,1.1,4.8c0,2-0.4,3.7-1.1,5.2
			c-0.7,1.5-1.7,2.8-2.9,3.9c-1.2,1-2.6,1.8-4.2,2.4c-1.6,0.5-3.3,0.8-5.2,0.8c-0.8,0-1.6-0.1-2.5-0.2c-0.9-0.1-1.7-0.2-2.5-0.2
			c-0.4,0-0.8,0-1.1,0c-0.3,0-0.7,0-1.1,0c-0.4,0-0.7,0-1,0c-0.3,0-0.6,0-0.9,0l-0.1-0.8c0.6,0,1.2-0.1,1.6-0.2
			c0.4-0.1,0.7-0.2,0.9-0.5c0.2-0.2,0.4-0.5,0.4-0.9c0.1-0.4,0.1-0.8,0.1-1.4V25.5c0-0.4,0-0.8-0.1-1c-0.1-0.3-0.2-0.5-0.4-0.6
			c-0.2-0.2-0.5-0.3-0.9-0.3c-0.4-0.1-1-0.1-1.7-0.1L158.4,22.4z M164.6,40.5c0,0.4,0,0.9,0,1.2c0,0.4,0.1,0.7,0.3,1
			c0.2,0.3,0.5,0.5,1,0.6c0.4,0.2,1,0.2,1.6,0.2c1.3,0,2.5-0.2,3.8-0.7c1.2-0.5,2.3-1.1,3.2-2c0.9-0.9,1.6-2,2-3.2
			c0.5-1.3,0.7-2.7,0.7-4.3c0-1.6-0.3-3.1-0.8-4.3c-0.5-1.2-1.2-2.2-2.1-3.1c-0.9-0.8-1.9-1.4-3.1-1.8c-1.2-0.4-2.4-0.6-3.6-0.6
			c-0.4,0-0.8,0-1.1,0.1c-0.4,0.1-0.7,0.1-1,0.3s-0.6,0.2-0.7,0.3c-0.2,0.1-0.3,0.3-0.3,0.4V40.5z"/>
		<path class="st0" d="M189.6,40.8c0,0.5,0,1,0.1,1.3c0.1,0.3,0.2,0.6,0.4,0.8c0.2,0.2,0.5,0.3,0.9,0.4c0.4,0.1,0.9,0.1,1.5,0.1h1.3
			c0.9,0,1.6-0.1,2.2-0.2c0.6-0.1,1-0.4,1.4-0.7c0.4-0.3,0.7-0.8,1-1.4s0.6-1.2,1-2.1l1,0.2c-0.1,0.4-0.2,0.9-0.3,1.4
			s-0.2,1-0.3,1.5c-0.1,0.5-0.2,1-0.2,1.4c-0.1,0.4-0.1,0.8-0.1,1.1c-3.1,0-5.6,0-7.5,0c-1.9,0-3.3,0-4.3,0c-0.4,0-0.8,0-1.1,0
			c-0.4,0-0.8,0-1.2,0s-0.8,0-1.2,0c-0.4,0-0.7,0-1,0l-0.1-0.8c0.7,0,1.3-0.1,1.7-0.2c0.4-0.1,0.8-0.3,1-0.5
			c0.2-0.2,0.4-0.5,0.5-0.9c0.1-0.4,0.1-0.8,0.1-1.4V25.4c0-0.4,0-0.7-0.1-0.9c-0.1-0.2-0.2-0.5-0.4-0.6c-0.2-0.2-0.5-0.3-0.9-0.4
			c-0.4-0.1-0.9-0.1-1.6-0.2l0.1-0.9c0.3,0,0.6,0,1,0c0.4,0,0.8,0,1.1,0c0.4,0,0.8,0,1.2,0c0.4,0,0.8,0,1.1,0c0.6,0,1.9,0,3.8,0
			c1.9,0,4.4,0,7.4,0c-0.1,0.8-0.2,1.6-0.2,2.5c0,0.9-0.1,1.8-0.1,2.8l-1,0c-0.1-0.8-0.3-1.5-0.5-2c-0.2-0.5-0.4-0.9-0.7-1.2
			c-0.3-0.3-0.7-0.5-1.2-0.6c-0.5-0.1-1.1-0.2-1.9-0.2h-2.9c-0.5,0-0.8,0-0.9,0.1s-0.2,0.3-0.2,0.7v7.9l7.5-0.2l0.2,0.2l0,2
			c-1.4-0.1-2.7-0.2-4-0.3c-1.3,0-2.5-0.1-3.6-0.1V40.8z"/>
		<path class="st0" d="M201.9,22.4c0.2,0,0.5,0,1,0c0.5,0,1,0,1.5,0c0.6,0,1.2,0,1.9,0c0.7,0,1.3,0,1.7,0c0.3,0.7,0.6,1.3,0.8,2
			c0.3,0.6,0.6,1.3,0.9,2l6.5,14.1l5.9-14.4c0.3-0.6,0.5-1.2,0.8-1.8c0.2-0.6,0.5-1.2,0.7-1.8c0.3,0,0.8,0,1.5,0c0.7,0,1.3,0,1.9,0
			c0.6,0,1.1,0,1.6,0c0.5,0,0.9,0,1.1,0l0,0.8c-0.7,0-1.2,0.1-1.6,0.2c-0.4,0.1-0.7,0.3-0.9,0.5c-0.2,0.2-0.4,0.5-0.4,0.9
			c-0.1,0.4-0.1,0.8-0.1,1.4l0.5,15.5c0,0.4,0.1,0.7,0.2,0.9c0.1,0.2,0.2,0.5,0.5,0.6c0.2,0.2,0.5,0.3,0.9,0.4
			c0.4,0.1,1,0.1,1.6,0.2l0,0.9c-0.3,0-0.6,0-1,0c-0.4,0-0.8,0-1.2,0c-0.4,0-0.8,0-1.2,0c-0.4,0-0.9,0-1.3,0c-0.5,0-1,0-1.3,0
			c-0.3,0-0.7,0-1,0c-0.3,0-0.6,0-0.9,0c-0.3,0-0.5,0-0.8,0l-0.1-0.8c0.6,0,1-0.1,1.3-0.2c0.3-0.1,0.6-0.3,0.8-0.5
			c0.2-0.2,0.3-0.5,0.3-0.9c0-0.4,0.1-0.8,0-1.4l-0.5-14.6c-1.3,3.1-2.6,6.1-3.9,9.2c-1.3,3.1-2.5,6.2-3.6,9.4l-1.4,0.1
			c-0.4-1.1-1.5-3.4-3.1-7.1c-1.6-3.6-3.2-7.1-4.7-10.4l-0.5,13c0,0.7,0,1.3,0,1.7c0.1,0.4,0.2,0.7,0.4,0.9c0.2,0.2,0.5,0.3,0.9,0.4
			c0.4,0.1,0.8,0.1,1.4,0.2l0,0.9c-0.5,0-1,0-1.6,0c-0.6,0-1.3,0-2.1,0c-0.6,0-1.2,0-1.8,0c-0.6,0-1.2,0-1.8,0l-0.1-0.8
			c0.6-0.1,1.1-0.1,1.5-0.2c0.4-0.1,0.7-0.3,0.9-0.5c0.2-0.3,0.4-0.7,0.5-1.2c0.1-0.5,0.2-1.2,0.2-2.2l0.5-11.9c0-0.6,0-1,0-1.4
			c0-0.4-0.1-0.7-0.1-1c-0.1-0.3-0.1-0.5-0.3-0.7c-0.1-0.2-0.2-0.4-0.4-0.6c-0.3-0.3-0.7-0.5-1.1-0.6c-0.4-0.1-1-0.2-1.5-0.2
			L201.9,22.4z"/>
		<path class="st0" d="M244.6,36.4h-7.3l-1.8,4.5c-0.3,0.9-0.5,1.4-0.5,1.7c0,0.4,0.2,0.6,0.6,0.8c0.4,0.2,1.1,0.3,2,0.3l-0.1,0.9
			c-0.6,0-1.2,0-1.9,0c-0.7,0-1.4,0-2.2,0c-0.6,0-1.2,0-1.8,0c-0.6,0-1.2,0-1.8,0l0-0.8c0.6,0,1.1-0.1,1.5-0.2
			c0.4-0.1,0.7-0.3,1-0.5c0.3-0.3,0.6-0.6,0.8-1.1c0.3-0.5,0.6-1.1,0.9-1.9l6.6-15.7c0.2-0.5,0.3-0.9,0.5-1.2
			c0.1-0.3,0.3-0.7,0.4-1.1l1.6-0.2c0.2,0.7,0.3,1.4,0.5,2c0.2,0.6,0.4,1.2,0.5,1.7l5.2,15.1c0.2,0.7,0.4,1.2,0.6,1.6
			c0.2,0.4,0.4,0.7,0.6,0.9s0.6,0.3,0.9,0.4c0.4,0.1,0.9,0.1,1.5,0.2l-0.1,0.9c-0.6,0-1.4,0-2.1,0c-0.8,0-1.6,0-2.5,0
			c-0.9,0-1.6,0-2.3,0c-0.7,0-1.3,0-2,0l-0.1-0.8c0.9-0.1,1.5-0.2,1.8-0.3c0.4-0.1,0.6-0.4,0.6-0.8c0-0.2,0-0.4-0.1-0.6
			c-0.1-0.2-0.1-0.5-0.2-0.8L244.6,36.4z M237.8,35.1h6.4l-2.9-8.7L237.8,35.1z"/>
		<path class="st0" d="M260.1,41.6c0,0.4,0,0.7,0.1,0.9c0,0.3,0.2,0.5,0.4,0.6c0.2,0.2,0.5,0.3,0.9,0.4c0.4,0.1,1,0.1,1.7,0.2l0,0.9
			c-0.7,0-1.5,0-2.3,0c-0.8,0-1.7,0-2.6,0c-0.4,0-0.8,0-1.1,0c-0.4,0-0.7,0-1.1,0c-0.3,0-0.7,0-1,0c-0.3,0-0.6,0-0.8,0l0-0.8
			c0.6,0,1.1-0.1,1.4-0.2c0.4-0.1,0.6-0.3,0.8-0.5c0.2-0.2,0.3-0.5,0.4-0.9c0.1-0.4,0.1-0.8,0.1-1.4V25.4c0-0.4,0-0.7-0.1-0.9
			c-0.1-0.2-0.2-0.5-0.4-0.6c-0.2-0.2-0.5-0.3-0.9-0.4c-0.4-0.1-0.9-0.1-1.5-0.2l0-0.9c0.2,0,0.5,0,0.9,0c0.3,0,0.7,0,1.1,0
			c0.4,0,0.8,0,1.3,0c0.5,0,0.9,0,1.2,0c0.8,0,1.6,0,2.2-0.1c0.6-0.1,1.2-0.1,1.6-0.1c1,0,2,0.1,2.9,0.2c0.9,0.2,1.8,0.4,2.5,0.8
			c0.7,0.4,1.4,0.9,1.8,1.6c0.5,0.7,0.7,1.6,0.7,2.6c0,0.7-0.1,1.4-0.3,2c-0.2,0.6-0.5,1.2-0.9,1.7c-0.4,0.5-0.9,1-1.4,1.4
			c-0.5,0.4-1.2,0.7-1.8,1c0.5,0.9,1,1.8,1.5,2.7c0.5,0.9,0.9,1.7,1.3,2.4c0.4,0.7,0.8,1.3,1.1,1.9c0.3,0.5,0.6,1,0.8,1.3
			c0.3,0.4,0.5,0.7,0.8,0.9c0.2,0.2,0.5,0.4,0.7,0.5c0.3,0.1,0.6,0.2,0.9,0.3c0.3,0.1,0.8,0.1,1.3,0.2l0,0.9c-0.5,0-1.1,0-1.8,0
			c-0.7,0-1.5,0-2.3,0c-0.4,0-0.8,0-1,0c-0.3,0-0.5,0-0.7,0c-0.2-0.3-0.4-0.8-0.7-1.4c-0.3-0.6-0.7-1.3-1.2-2.2
			c-0.4-0.8-0.9-1.7-1.5-2.7c-0.5-1-1.1-2-1.7-3c-0.1-0.2-0.2-0.3-0.3-0.4c-0.1-0.1-0.2-0.2-0.3-0.3c-0.1-0.1-0.3-0.2-0.5-0.2
			s-0.4-0.1-0.6-0.1h-0.4c-0.1,0-0.3,0-0.5,0c-0.2,0-0.4,0-0.6,0V41.6z M260.1,33.2c0.1,0,0.2,0,0.4,0c0.1,0,0.2,0,0.4,0h0.4
			c1.6,0,2.9-0.4,3.9-1.2c1-0.8,1.5-2.2,1.5-4c0-1.5-0.5-2.7-1.4-3.4c-0.9-0.7-2.1-1.1-3.5-1.1c-0.3,0-0.5,0-0.8,0.1
			c-0.3,0.1-0.5,0.2-0.6,0.4c-0.1,0.2-0.2,0.4-0.2,0.6c0,0.2,0,0.5,0,0.8V33.2z"/>
		<path class="st0" d="M284.2,23.3c-0.6,0-1.1,0.1-1.5,0.2c-0.4,0.1-0.7,0.3-0.9,0.5c-0.2,0.2-0.4,0.5-0.4,0.9
			c-0.1,0.4-0.1,0.8-0.1,1.4v6.5c0.3-0.1,0.7-0.2,1-0.4c0.3-0.2,0.7-0.5,1.1-0.9c0.5-0.4,1-0.9,1.5-1.5c0.5-0.5,1.1-1.1,1.6-1.7
			c0.5-0.6,1-1.1,1.5-1.7c0.5-0.6,0.9-1.1,1.3-1.5c0.2-0.3,0.4-0.5,0.5-0.7c0.1-0.2,0.1-0.4,0-0.6c-0.1-0.2-0.3-0.3-0.7-0.4
			c-0.3-0.1-0.8-0.1-1.4-0.2l0-0.9c0.2,0,0.5,0,0.8,0c0.3,0,0.7,0,1.1,0c0.4,0,0.8,0,1.2,0c0.4,0,0.8,0,1.1,0c0.3,0,0.6,0,1,0
			c0.4,0,0.8,0,1.2,0c0.4,0,0.8,0,1.1,0c0.3,0,0.6,0,0.8,0l0.1,0.8c-0.6,0-1,0.1-1.5,0.2c-0.4,0.1-0.8,0.3-1.3,0.4
			c-0.4,0.2-0.8,0.4-1.3,0.7c-0.4,0.3-0.9,0.7-1.3,1.1c-0.3,0.3-0.8,0.7-1.2,1.2c-0.5,0.5-1,1-1.6,1.6c-0.6,0.6-1.2,1.2-1.8,1.8
			c-0.6,0.6-1.2,1.2-1.7,1.7c0.7,0.9,1.5,1.8,2.2,2.7c0.7,0.9,1.5,1.8,2.2,2.6c0.7,0.8,1.4,1.6,2,2.3c0.6,0.7,1.1,1.3,1.6,1.7
			c0.5,0.5,0.9,0.9,1.2,1.2c0.3,0.3,0.6,0.5,0.9,0.7c0.3,0.2,0.6,0.3,0.9,0.4c0.3,0.1,0.8,0.1,1.3,0.2l0,0.9c-0.6,0-1.2,0-1.9,0
			c-0.7,0-1.5,0-2.4,0c-0.3,0-0.6,0-0.8,0c-0.2,0-0.5,0-0.7,0c-0.1-0.2-0.3-0.6-0.6-1c-0.3-0.4-0.7-0.9-1.1-1.4
			c-0.4-0.5-0.9-1.1-1.3-1.6c-0.4-0.5-0.9-1.1-1.4-1.7c-0.5-0.6-1-1.2-1.5-1.9c-0.5-0.7-1.2-1.4-1.9-2.3c-0.3-0.4-0.6-0.6-0.7-0.8
			c-0.2-0.1-0.4-0.2-0.5-0.2s-0.3,0-0.5,0.1v7.8c0,0.4,0,0.7,0.1,0.9c0.1,0.2,0.2,0.5,0.4,0.6c0.2,0.2,0.5,0.3,0.9,0.4
			c0.4,0.1,0.9,0.1,1.6,0.2l0,0.9c-0.2,0-0.6,0-0.9,0c-0.4,0-0.8,0-1.2,0c-0.4,0-0.9,0-1.4,0c-0.5,0-1,0-1.4,0c-0.4,0-0.8,0-1.2,0
			c-0.4,0-0.7,0-1.1,0c-0.4,0-0.7,0-1,0c-0.3,0-0.6,0-0.8,0l-0.1-0.8c0.6,0,1.2-0.1,1.5-0.2c0.4-0.1,0.7-0.3,0.9-0.5
			c0.2-0.2,0.3-0.5,0.4-0.9c0.1-0.4,0.1-0.8,0.1-1.4V25.4c0-0.4,0-0.7-0.1-0.9c-0.1-0.2-0.2-0.5-0.4-0.6c-0.2-0.2-0.5-0.3-0.9-0.4
			c-0.4-0.1-0.9-0.1-1.6-0.2l0-0.9c0.2,0,0.6,0,0.9,0c0.4,0,0.8,0,1.2,0c0.4,0,0.9,0,1.4,0c0.5,0,0.9,0,1.3,0c0.5,0,0.9,0,1.3,0
			c0.4,0,0.7,0,1.1,0c0.4,0,0.7,0,1,0c0.3,0,0.6,0,0.8,0L284.2,23.3z"/>
	</g>
	<g>
		<g>
			<path class="st0" d="M147.9,55c0.4,0,0.9,0,1.5,0c0.6,0,1.2,0,1.9,0c0.6,0,1.2,0,1.8-0.1c0.6-0.1,1.3-0.1,1.9-0.1
				c1.3,0,2.5,0.1,3.7,0.4c1.1,0.3,2.2,0.7,3,1.3s1.6,1.4,2.1,2.4c0.5,1,0.8,2.2,0.8,3.6c0,1.5-0.3,2.8-0.8,3.9
				c-0.5,1.1-1.2,2.1-2.1,2.9c-0.9,0.8-1.9,1.4-3.1,1.8c-1.2,0.4-2.5,0.6-3.9,0.6c-0.6,0-1.2,0-1.9-0.1c-0.7-0.1-1.3-0.1-1.9-0.1
				c-0.3,0-0.6,0-0.8,0c-0.3,0-0.5,0-0.8,0s-0.5,0-0.8,0c-0.2,0-0.5,0-0.6,0l-0.1-0.6c0.5,0,0.9-0.1,1.2-0.2s0.5-0.2,0.7-0.3
				c0.2-0.2,0.3-0.4,0.3-0.6c0.1-0.3,0.1-0.6,0.1-1.1V57.3c0-0.3,0-0.6-0.1-0.8c0-0.2-0.1-0.4-0.3-0.5c-0.2-0.1-0.4-0.2-0.7-0.3
				c-0.3-0.1-0.7-0.1-1.2-0.1L147.9,55z M152.5,68.4c0,0.3,0,0.6,0,0.9c0,0.3,0.1,0.5,0.3,0.7s0.4,0.4,0.7,0.5
				c0.3,0.1,0.7,0.2,1.2,0.2c0.9,0,1.9-0.2,2.8-0.5c0.9-0.3,1.7-0.8,2.3-1.5c0.7-0.7,1.2-1.5,1.5-2.4c0.4-0.9,0.5-2,0.5-3.2
				c0-1.2-0.2-2.3-0.6-3.2c-0.4-0.9-0.9-1.7-1.5-2.3c-0.7-0.6-1.4-1.1-2.3-1.4c-0.9-0.3-1.8-0.5-2.7-0.5c-0.3,0-0.6,0-0.8,0.1
				c-0.3,0-0.5,0.1-0.7,0.2c-0.2,0.1-0.4,0.2-0.5,0.3c-0.1,0.1-0.2,0.2-0.2,0.3V68.4z"/>
			<path class="st0" d="M171,68.6c0,0.4,0,0.7,0.1,1c0,0.3,0.1,0.4,0.3,0.6c0.2,0.1,0.4,0.2,0.7,0.3c0.3,0.1,0.7,0.1,1.1,0.1h1
				c0.7,0,1.2-0.1,1.6-0.2c0.4-0.1,0.8-0.3,1.1-0.5c0.3-0.3,0.5-0.6,0.8-1c0.2-0.4,0.5-0.9,0.7-1.5l0.7,0.2
				c-0.1,0.3-0.2,0.7-0.3,1.1c-0.1,0.4-0.2,0.7-0.2,1.1c-0.1,0.4-0.1,0.7-0.2,1c0,0.3-0.1,0.6-0.1,0.8c-2.3,0-4.2,0-5.6,0
				c-1.4,0-2.5,0-3.2,0c-0.3,0-0.6,0-0.8,0c-0.3,0-0.6,0-0.9,0c-0.3,0-0.6,0-0.9,0c-0.3,0-0.5,0-0.7,0l-0.1-0.6
				c0.5,0,0.9-0.1,1.3-0.2c0.3-0.1,0.6-0.2,0.7-0.3c0.2-0.2,0.3-0.4,0.3-0.6c0.1-0.3,0.1-0.6,0.1-1.1V57.2c0-0.3,0-0.5-0.1-0.7
				c-0.1-0.2-0.2-0.3-0.3-0.5c-0.2-0.1-0.4-0.2-0.7-0.3c-0.3-0.1-0.7-0.1-1.2-0.1l0.1-0.7c0.2,0,0.5,0,0.7,0c0.3,0,0.6,0,0.8,0
				c0.3,0,0.6,0,0.9,0c0.3,0,0.6,0,0.8,0c0.4,0,1.4,0,2.8,0c1.4,0,3.3,0,5.5,0c-0.1,0.6-0.1,1.2-0.2,1.8c0,0.6-0.1,1.3-0.1,2l-0.8,0
				c-0.1-0.6-0.2-1.1-0.3-1.5c-0.1-0.4-0.3-0.7-0.5-0.9c-0.2-0.2-0.5-0.4-0.9-0.5c-0.4-0.1-0.8-0.1-1.4-0.1h-2.2
				c-0.3,0-0.6,0-0.7,0.1c-0.1,0.1-0.1,0.2-0.1,0.5v5.9l5.6-0.2l0.1,0.1l0,1.5c-1-0.1-2-0.2-3-0.2c-0.9,0-1.8-0.1-2.7-0.1V68.6z"/>
			<path class="st0" d="M187.2,55.6c-0.5,0-0.8,0.1-1.1,0.2s-0.5,0.2-0.7,0.3c-0.2,0.2-0.3,0.4-0.3,0.6c-0.1,0.3-0.1,0.6-0.1,1v10.8
				c0,0.4,0,0.7,0.1,1c0,0.3,0.1,0.4,0.3,0.6s0.4,0.2,0.7,0.3c0.3,0.1,0.7,0.1,1.1,0.1h0.6c0.7,0,1.2-0.1,1.6-0.2
				c0.4-0.1,0.8-0.3,1.1-0.5c0.3-0.3,0.5-0.6,0.8-1s0.5-0.9,0.7-1.5l0.7,0.2c-0.1,0.3-0.2,0.7-0.3,1.1c-0.1,0.4-0.2,0.7-0.2,1.1
				c-0.1,0.4-0.1,0.7-0.2,1c0,0.3-0.1,0.6-0.1,0.8h-2.6c-0.8,0-1.4,0-1.8,0c-0.5,0-0.9,0-1.3,0c-0.4,0-0.7,0-1,0c-0.3,0-0.5,0-0.8,0
				h-0.8c-0.3,0-0.6,0-0.9,0c-0.3,0-0.5,0-0.8,0c-0.3,0-0.5,0-0.8,0c-0.2,0-0.4,0-0.6,0l-0.1-0.6c0.5,0,0.8-0.1,1.1-0.2
				s0.5-0.2,0.7-0.3s0.3-0.4,0.3-0.6c0.1-0.3,0.1-0.6,0.1-1.1V57.2c0-0.3,0-0.5-0.1-0.7c-0.1-0.2-0.2-0.3-0.3-0.5
				c-0.2-0.1-0.4-0.2-0.7-0.3c-0.3-0.1-0.7-0.1-1.2-0.1l0.1-0.7c0.2,0,0.4,0,0.7,0c0.3,0,0.6,0,0.9,0c0.3,0,0.6,0,1,0
				c0.4,0,0.7,0,1,0c0.4,0,0.7,0,1,0c0.3,0,0.5,0,0.8,0c0.3,0,0.5,0,0.8,0c0.2,0,0.4,0,0.6,0L187.2,55.6z"/>
			<path class="st0" d="M198.1,65.7c0,0.8,0.1,1.5,0.4,2.1c0.3,0.6,0.6,1.1,1.1,1.4c0.5,0.4,1,0.6,1.5,0.8c0.6,0.2,1.1,0.3,1.6,0.3
				c0.6,0,1.2-0.1,1.8-0.3c0.6-0.2,1.1-0.5,1.5-0.9c0.4-0.4,0.8-1,1-1.6c0.2-0.7,0.4-1.4,0.4-2.4v-7c0-0.5,0-0.9-0.1-1.2
				c-0.1-0.3-0.2-0.5-0.4-0.7c-0.2-0.2-0.5-0.3-0.8-0.4s-0.8-0.1-1.3-0.2l0-0.7c0.4,0,0.9,0,1.4,0c0.6,0,1.2,0,1.8,0
				c0.5,0,1,0,1.6,0c0.5,0,1,0,1.4,0l0,0.6c-0.5,0-0.9,0.1-1.2,0.2c-0.3,0.1-0.6,0.2-0.8,0.4c-0.2,0.2-0.3,0.5-0.4,0.8
				c-0.1,0.4-0.1,0.8-0.1,1.5v7.2c0,1.1-0.2,2.1-0.6,2.8c-0.4,0.8-0.9,1.4-1.5,1.9c-0.6,0.5-1.3,0.9-2.1,1.1
				c-0.8,0.2-1.6,0.3-2.4,0.3c-0.8,0-1.6-0.1-2.3-0.3c-0.7-0.2-1.4-0.5-2-1c-0.6-0.5-1-1-1.3-1.7s-0.5-1.5-0.5-2.4v-9.1
				c0-0.3,0-0.5-0.1-0.7c-0.1-0.2-0.2-0.4-0.3-0.5c-0.2-0.1-0.4-0.2-0.7-0.3c-0.3-0.1-0.7-0.1-1.2-0.1l0-0.7c0.2,0,0.4,0,0.7,0
				c0.3,0,0.6,0,0.9,0c0.3,0,0.6,0,1,0c0.3,0,0.7,0,1,0c0.4,0,0.7,0,1,0c0.3,0,0.6,0,0.8,0s0.6,0,0.8,0c0.3,0,0.5,0,0.7,0l0.1,0.6
				c-0.5,0-0.9,0.1-1.2,0.2c-0.3,0.1-0.5,0.2-0.7,0.4c-0.2,0.2-0.3,0.4-0.4,0.7c-0.1,0.3-0.1,0.6-0.1,1.1V65.7z"/>
			<path class="st0" d="M216.6,71.5c-0.4,0-0.8,0-1.4,0c-0.6,0-1.2,0-1.7,0c-0.6,0-1.1,0-1.4,0c-0.4,0-0.8,0-1.2,0l0-0.7
				c0.5,0,0.9-0.1,1.2-0.2s0.6-0.2,0.9-0.5c0.3-0.2,0.5-0.5,0.8-0.8s0.5-0.7,0.9-1.2l3.4-4.8l-3.8-5.7c-0.3-0.4-0.6-0.8-0.8-1.1
				c-0.2-0.3-0.4-0.5-0.6-0.6c-0.2-0.1-0.5-0.3-0.7-0.3c-0.3-0.1-0.7-0.1-1.1-0.1l0-0.7c0.2,0,0.4,0,0.7,0c0.3,0,0.6,0,0.9,0
				c0.3,0,0.6,0,0.9,0c0.3,0,0.6,0,1,0c0.7,0,1.3,0,1.9,0c0.5,0,1,0,1.4,0l0.1,0.6c-0.6,0.1-1,0.1-1.3,0.2c-0.2,0.1-0.3,0.2-0.3,0.4
				s0.1,0.4,0.3,0.7l3.1,4.5l2.9-4.2c0.2-0.2,0.3-0.4,0.4-0.6c0.1-0.2,0.1-0.3,0.1-0.4c0-0.2-0.1-0.3-0.4-0.4
				c-0.2-0.1-0.6-0.2-1.2-0.2l0.1-0.6c0.4,0,0.8,0,1.4,0c0.5,0,1.1,0,1.6,0c0.5,0,1,0,1.3,0c0.4,0,0.7,0,1.1,0l0,0.7
				c-0.5,0-0.9,0.1-1.2,0.2c-0.3,0.1-0.6,0.2-0.8,0.4c-0.3,0.2-0.5,0.4-0.7,0.7s-0.5,0.7-0.8,1.1l-3.1,4.2l4.1,6.2
				c0.3,0.5,0.6,0.8,0.8,1.1c0.2,0.3,0.5,0.5,0.7,0.7c0.2,0.2,0.5,0.3,0.8,0.3c0.3,0.1,0.7,0.1,1.2,0.1l0,0.7c-0.2,0-0.4,0-0.7,0
				c-0.3,0-0.6,0-0.8,0s-0.6,0-1,0c-0.4,0-0.7,0-1,0c-0.3,0-0.6,0-1,0c-0.4,0-0.7,0-1,0c-0.3,0-0.6,0-0.8,0c-0.3,0-0.5,0-0.7,0
				l-0.1-0.6c0.7-0.1,1.1-0.1,1.4-0.2c0.3-0.1,0.4-0.2,0.4-0.4c0-0.2-0.1-0.4-0.3-0.7l-3.5-5.2l-3.3,4.9c-0.2,0.2-0.3,0.4-0.4,0.6
				c-0.1,0.2-0.1,0.3-0.1,0.4c0,0.2,0.1,0.3,0.4,0.4c0.3,0.1,0.7,0.2,1.4,0.2L216.6,71.5z"/>
			<path class="st0" d="M232.9,68.6c0,0.4,0,0.7,0.1,1c0,0.3,0.1,0.4,0.3,0.6s0.4,0.2,0.7,0.3c0.3,0.1,0.7,0.1,1.1,0.1h1
				c0.7,0,1.2-0.1,1.6-0.2c0.4-0.1,0.8-0.3,1.1-0.5c0.3-0.3,0.5-0.6,0.8-1c0.2-0.4,0.5-0.9,0.7-1.5l0.7,0.2
				c-0.1,0.3-0.2,0.7-0.3,1.1c-0.1,0.4-0.2,0.7-0.2,1.1c-0.1,0.4-0.1,0.7-0.2,1c0,0.3-0.1,0.6-0.1,0.8c-2.3,0-4.2,0-5.6,0
				c-1.4,0-2.5,0-3.2,0c-0.3,0-0.6,0-0.8,0c-0.3,0-0.6,0-0.9,0c-0.3,0-0.6,0-0.9,0c-0.3,0-0.5,0-0.7,0l-0.1-0.6
				c0.5,0,0.9-0.1,1.3-0.2c0.3-0.1,0.6-0.2,0.7-0.3c0.2-0.2,0.3-0.4,0.3-0.6c0.1-0.3,0.1-0.6,0.1-1.1V57.2c0-0.3,0-0.5-0.1-0.7
				c-0.1-0.2-0.2-0.3-0.3-0.5c-0.2-0.1-0.4-0.2-0.7-0.3c-0.3-0.1-0.7-0.1-1.2-0.1l0.1-0.7c0.2,0,0.5,0,0.7,0c0.3,0,0.6,0,0.8,0
				c0.3,0,0.6,0,0.9,0c0.3,0,0.6,0,0.8,0c0.4,0,1.4,0,2.8,0c1.4,0,3.3,0,5.5,0c-0.1,0.6-0.1,1.2-0.2,1.8c0,0.6-0.1,1.3-0.1,2l-0.8,0
				c-0.1-0.6-0.2-1.1-0.3-1.5c-0.1-0.4-0.3-0.7-0.5-0.9c-0.2-0.2-0.5-0.4-0.9-0.5c-0.4-0.1-0.8-0.1-1.4-0.1h-2.2
				c-0.3,0-0.6,0-0.7,0.1c-0.1,0.1-0.1,0.2-0.1,0.5v5.9l5.6-0.2l0.1,0.1l0,1.5c-1-0.1-2-0.2-3-0.2c-0.9,0-1.8-0.1-2.7-0.1V68.6z"/>
		</g>
	</g>
</g>
</svg>
